<svg width="18" height="18" viewBox="0 0 18 18" fill="none" xmlns="http://www.w3.org/2000/svg">
<path d="M0 9.07114C0.738942 5.04826 4.26349 2 8.50002 2C12.7365 2 16.2611 5.04826 17 9.07114C16.2611 13.094 12.7365 16.1423 8.50002 16.1423C4.26349 16.1423 0.738942 13.094 0 9.07114ZM8.50002 12.9995C10.6696 12.9995 12.4284 11.2407 12.4284 9.07114C12.4284 6.90154 10.6696 5.14273 8.50002 5.14273C6.3304 5.14273 4.57158 6.90154 4.57158 9.07114C4.57158 11.2407 6.3304 12.9995 8.50002 12.9995ZM8.50002 11.4282C7.19823 11.4282 6.14295 10.3729 6.14295 9.07114C6.14295 7.76934 7.19823 6.71409 8.50002 6.71409C9.80174 6.71409 10.8571 7.76934 10.8571 9.07114C10.8571 10.3729 9.80174 11.4282 8.50002 11.4282Z" fill="#504F4F"/>
</svg>
