<svg width="18" height="18" viewBox="0 0 18 18" fill="none" xmlns="http://www.w3.org/2000/svg">
<path d="M2.62326 4.5678L0.16658 2.11113L1.27771 1L16.8334 16.5557L15.7223 17.6669L13.1217 15.0663C11.785 15.9138 10.1998 16.4046 8.50002 16.4046C4.26349 16.4046 0.738942 13.3563 0 9.33345C0.343092 7.46559 1.2867 5.80786 2.62326 4.5678ZM10.6665 12.611L9.51623 11.4608C9.20847 11.608 8.86387 11.6905 8.50002 11.6905C7.19823 11.6905 6.14295 10.6352 6.14295 9.33345C6.14295 8.96952 6.22541 8.62492 6.37266 8.31717L5.22244 7.16699C4.81112 7.78802 4.57158 8.53276 4.57158 9.33345C4.57158 11.503 6.3304 13.2619 8.50002 13.2619C9.30063 13.2619 10.0454 13.0223 10.6665 12.611ZM5.337 2.85939C6.31659 2.47397 7.38357 2.26228 8.50002 2.26228C12.7365 2.26228 16.2611 5.31054 17 9.33345C16.7547 10.6688 16.2025 11.8968 15.4191 12.9415L12.3866 9.90896C12.4141 9.72111 12.4284 9.52893 12.4284 9.33345C12.4284 7.16382 10.6696 5.40501 8.50002 5.40501C8.30447 5.40501 8.11229 5.41929 7.92443 5.44687L5.337 2.85939Z" fill="#B6B6B6"/>
</svg>
